<svg xmlns="http://www.w3.org/2000/svg" width="79" height="28" viewBox="0 0 79 28" fill="none">
  <g clip-path="url(#clip0_1_73)">
    <path d="M9.10293 3.5H0.565857V23.9167L9.10293 3.5Z" fill="#4C4C4D"/>
    <path d="M15.1094 3.5H23.6354V23.9167L15.1094 3.5Z" fill="#4C4C4D"/>
    <path d="M12.106 11.025L17.5397 23.9168H13.9747L12.3507 19.8123H8.37415L12.106 11.025Z" fill="#4C4C4D"/>
    <path d="M37.5633 16.4827L38.5699 19.3691C38.6033 19.4414 38.6534 19.4748 38.7423 19.4748H40.6778C40.7835 19.4748 40.8001 19.4247 40.7835 19.3191L36.7847 8.21254C36.768 8.12356 36.7513 8.10687 36.6623 8.10687H34.2597C34.193 8.10687 34.154 8.15693 34.154 8.22923C34.1206 8.8132 34.0706 8.99117 33.9983 9.16358L30.4333 19.3024C30.4166 19.4248 30.4556 19.4748 30.5557 19.4748H32.2853C32.391 19.4748 32.441 19.4414 32.48 19.3358L33.431 16.4827H37.5633ZM33.9816 14.5973C34.5044 13.0178 35.194 10.9933 35.4721 9.83653H35.4888C35.8336 11.049 36.6456 13.4516 37.0127 14.5973H33.9816Z" fill="#4C4C4D"/>
    <path d="M45.9243 19.6467C46.9643 19.6467 48.0711 19.4576 49.1945 18.9737C49.2835 18.9403 49.3002 18.9014 49.3002 18.818C49.2668 18.5065 49.2279 18.0561 49.2279 17.7112V7.25541C49.2279 7.18867 49.2279 7.1553 49.1445 7.1553H47.2591C47.1868 7.1553 47.1534 7.18867 47.1534 7.27766V10.8204C46.8586 10.787 46.6529 10.7703 46.4082 10.7703C43.366 10.7703 41.4973 12.7781 41.4973 15.2864C41.4973 18.1951 43.416 19.6467 45.9243 19.6467ZM47.1534 17.7112C46.842 17.8113 46.4971 17.8503 46.1468 17.8503C44.7675 17.8503 43.6385 17.0717 43.6385 15.1807C43.6385 13.5067 44.8009 12.5167 46.3414 12.5167C46.6529 12.5167 46.9254 12.5501 47.1534 12.6391V17.7112Z" fill="#4C4C4D"/>
    <path d="M55.3137 10.7712C52.7164 10.7712 51.1091 12.7623 51.1091 15.2205C51.1091 17.4174 52.3883 19.6476 55.2748 19.6476C57.7163 19.6476 59.4293 17.8512 59.4293 15.1649C59.4293 12.7957 57.9777 10.7712 55.3137 10.7712ZM55.208 12.5176C56.6763 12.5176 57.2992 13.7801 57.2992 15.2205C57.2992 17.0002 56.3815 17.8845 55.3137 17.8845C53.9956 17.8845 53.217 16.7778 53.217 15.1816C53.217 13.5409 54.0457 12.5176 55.208 12.5176Z" fill="#4C4C4D"/>
    <path d="M61.3793 7.1553C61.307 7.1553 61.257 7.18867 61.257 7.27766V19.1128C61.257 19.1628 61.307 19.2518 61.3793 19.2685C62.208 19.5243 63.0756 19.6467 63.971 19.6467C66.5349 19.6467 69.0265 18.0561 69.0265 14.8526C69.0265 12.5334 67.4359 10.7703 64.9443 10.7703C64.3715 10.7703 63.8375 10.8593 63.3704 11.0151L63.3481 7.29434C63.3481 7.17199 63.3147 7.1553 63.1924 7.1553H61.3793ZM66.8964 15.0639C66.8964 16.9827 65.5839 17.8836 64.1657 17.8836C63.8709 17.8836 63.6095 17.867 63.3704 17.7947V12.7447C63.6429 12.6391 63.971 12.5501 64.5772 12.5501C65.9454 12.5501 66.8964 13.4177 66.8964 15.0639Z" fill="#4C4C4D"/>
    <path d="M76.0628 15.6877C76.9082 15.6877 77.6034 15.671 77.8426 15.6154C77.9315 15.5987 77.9649 15.5653 77.9816 15.493C78.0317 15.304 78.0539 14.9091 78.0539 14.4252C78.0539 12.779 77.0639 10.7712 74.5056 10.7712C71.8916 10.7712 70.4401 12.9013 70.4401 15.304C70.4401 17.434 71.5635 19.6476 74.7114 19.6476C75.8904 19.6476 76.6524 19.4585 77.3086 19.147C77.3754 19.1137 77.4087 19.058 77.4087 18.9579V17.5175C77.4087 17.434 77.3587 17.4174 77.3086 17.4507C76.6524 17.7288 75.9405 17.8679 75.1619 17.8679C73.3988 17.8679 72.598 16.8946 72.5479 15.6877H76.0628ZM72.5479 14.1972C72.687 13.3518 73.2209 12.4342 74.4166 12.4342C75.7347 12.4342 76.0795 13.5409 76.0795 14.0415C76.0795 14.0582 76.0795 14.1305 76.0795 14.1805C76.0072 14.1972 75.7848 14.1972 75.1285 14.1972H72.5479Z" fill="#4C4C4D"/>
  </g>
  <defs>
    <clipPath id="clip0_1_73">
      <rect width="77.5833" height="28" fill="white" transform="translate(0.565491)"/>
    </clipPath>
  </defs>
</svg>