<svg xmlns="http://www.w3.org/2000/svg" width="76" height="28" viewBox="0 0 76 28" fill="none">
  <g clip-path="url(#clip0_1_84)">
    <path d="M26.802 20.2851V11.7946H26.9533L33.1335 20.2851H35.0783V7.81675H32.9174V16.2858H32.7661L26.5859 7.81675H24.6411V20.2851H26.802ZM41.1937 20.4776C44.0461 20.4776 45.7964 18.6383 45.7964 15.5587C45.7964 12.5004 44.0461 10.6398 41.1937 10.6398C38.3629 10.6398 36.5909 12.5004 36.5909 15.5587C36.6126 18.6383 38.3413 20.4776 41.1937 20.4776ZM41.1937 18.6811C39.681 18.6811 38.8167 17.5476 38.8167 15.5587C38.8167 13.5911 39.681 12.4362 41.1937 12.4362C42.7063 12.4362 43.5707 13.5911 43.5707 15.5587C43.5707 17.5476 42.7063 18.6811 41.1937 18.6811ZM47.7629 8.52251V10.8964H46.2502V12.6073H47.7629V17.7615C47.7629 19.6007 48.6272 20.3279 50.8314 20.3279C51.242 20.3279 51.6525 20.2851 51.9767 20.2209V18.5528C51.7174 18.5742 51.5445 18.5956 51.242 18.5956C50.3344 18.5956 49.9238 18.1892 49.9238 17.2482V12.6073H51.9767V10.8964H49.9238V8.52251H47.7629ZM53.2732 20.2851H55.4341V10.8323H53.2732V20.2851ZM54.3537 9.27103C55.0668 9.27103 55.6502 8.6936 55.6502 7.98784C55.6502 7.2607 55.0668 6.68327 54.3537 6.68327C53.6406 6.68327 53.0571 7.2607 53.0571 7.98784C53.0571 8.6936 53.6406 9.27103 54.3537 9.27103ZM61.355 20.4776C64.2075 20.4776 65.9578 18.6383 65.9578 15.5587C65.9578 12.5004 64.2075 10.6398 61.355 10.6398C58.5243 10.6398 56.7523 12.5004 56.7523 15.5587C56.7523 18.6383 58.481 20.4776 61.355 20.4776ZM61.355 18.6811C59.8424 18.6811 58.978 17.5476 58.978 15.5587C58.978 13.5911 59.8424 12.4362 61.355 12.4362C62.8461 12.4362 63.7321 13.5911 63.7321 15.5587C63.7104 17.5476 62.8461 18.6811 61.355 18.6811ZM67.2327 20.2851H69.3937V14.7888C69.3937 13.3986 70.2148 12.5218 71.4898 12.5218C72.8079 12.5218 73.413 13.2489 73.413 14.6818V20.2851H75.5739V14.1685C75.5739 11.9016 74.407 10.6398 72.2893 10.6398C70.8631 10.6398 69.9123 11.2814 69.4585 12.3507H69.3072V10.8323H67.2111C67.2327 10.8323 67.2327 20.2851 67.2327 20.2851Z" fill="#4C4C4D"/>
    <path fill-rule="evenodd" clip-rule="evenodd" d="M3.92157 7.01872C4.55051 7.52611 4.778 7.48605 5.95558 7.40594L17.049 6.73833C17.2898 6.73833 17.0891 6.49799 17.0088 6.47128L15.1622 5.14942C14.8142 4.88238 14.3325 4.56192 13.4359 4.64204L2.70384 5.42981C2.31577 5.46987 2.23548 5.67015 2.39606 5.81703L3.92157 7.01872ZM4.59065 9.59569V21.2388C4.59065 21.8663 4.89843 22.0933 5.60766 22.0533L17.7983 21.3456C18.5076 21.3056 18.5879 20.8783 18.5879 20.3709V8.80792C18.5879 8.30053 18.3871 8.02014 17.9589 8.06019L5.21959 8.80792C4.75123 8.84797 4.59065 9.08831 4.59065 9.59569ZM16.6208 10.2232C16.7011 10.5704 16.6208 10.9309 16.2728 10.971L15.684 11.0911V19.6899C15.1755 19.957 14.7072 20.1172 14.3057 20.1172C13.6768 20.1172 13.5162 19.9169 13.0479 19.3294L9.20732 13.3076V19.1291L10.4251 19.3962C10.4251 19.3962 10.4251 20.1039 9.44819 20.1039L6.7451 20.2641C6.66481 20.1039 6.7451 19.7166 7.01273 19.6365L7.72196 19.4362V11.7454L6.7451 11.6653C6.66481 11.3181 6.86554 10.8107 7.41418 10.7707L10.318 10.5704L14.3191 16.659V11.2781L13.3021 11.1579C13.2218 10.7306 13.543 10.4102 13.931 10.3701L16.6208 10.2232ZM1.80727 4.36164L12.981 3.54716C14.3459 3.42699 14.7072 3.5071 15.5636 4.13465L19.1231 6.63151C19.7119 7.05878 19.9126 7.17895 19.9126 7.64628V21.359C19.9126 22.2135 19.6049 22.7209 18.5076 22.801L5.54075 23.5888C4.71109 23.6288 4.32302 23.5087 3.89481 22.9612L1.25862 19.5564C0.790263 18.9289 0.589539 18.4615 0.589539 17.9141V5.72356C0.589539 5.0159 0.910698 4.44175 1.80727 4.36164Z" fill="#4C4C4D"/>
  </g>
  <defs>
    <clipPath id="clip0_1_84">
      <rect width="75.25" height="28" fill="white" transform="translate(0.589355)"/>
    </clipPath>
  </defs>
</svg>