<svg xmlns="http://www.w3.org/2000/svg" width="83" height="28" viewBox="0 0 83 28" fill="none">
  <g clip-path="url(#clip0_1_60)">
    <path d="M13.2467 1.79593C6.48125 1.79593 0.99649 7.28054 0.99649 14.046C0.99649 20.8118 6.48125 26.2959 13.2467 26.2959C20.0129 26.2959 25.4971 20.8118 25.4971 14.046C25.4971 7.28098 20.0129 1.79651 13.2466 1.79651L13.2467 1.79593ZM18.8646 19.4641C18.6452 19.8239 18.1741 19.938 17.8143 19.7171C14.9381 17.9603 11.3172 17.5624 7.05307 18.5366C6.64216 18.6302 6.23257 18.3728 6.13895 17.9617C6.04489 17.5507 6.30132 17.1411 6.71325 17.0474C11.3797 15.9813 15.3825 16.4404 18.6115 18.4137C18.9714 18.6346 19.0855 19.1042 18.8646 19.4641ZM20.364 16.1285C20.0875 16.5779 19.4995 16.7198 19.0504 16.4433C15.7575 14.4193 10.7381 13.8332 6.8433 15.0154C6.33818 15.168 5.80469 14.8833 5.65138 14.3791C5.49925 13.874 5.78406 13.3415 6.2883 13.1879C10.7372 11.838 16.2681 12.4919 20.0495 14.8156C20.4986 15.0921 20.6405 15.6801 20.364 16.1286V16.1285ZM20.4927 12.6551C16.5445 10.3101 10.0305 10.0944 6.26095 11.2385C5.65562 11.4221 5.01549 11.0804 4.83205 10.4751C4.64861 9.86946 4.99003 9.22976 5.59579 9.04574C9.92301 7.73211 17.1165 7.98592 21.6621 10.6844C22.2078 11.0075 22.3862 11.7107 22.0629 12.2545C21.7411 12.7989 21.036 12.9784 20.4933 12.6551H20.4927ZM34.3253 13.1045C32.2101 12.6001 31.8341 12.2461 31.8341 11.5023C31.8341 10.7995 32.4953 10.3266 33.4798 10.3266C34.4336 10.3266 35.3786 10.6857 36.3704 11.425C36.3996 11.4474 36.4376 11.4563 36.4742 11.4505C36.5123 11.4449 36.5444 11.4246 36.5664 11.394L37.5991 9.93822C37.6416 9.87824 37.6299 9.79559 37.5728 9.7498C36.3923 8.80291 35.064 8.34255 33.5105 8.34255C31.227 8.34255 29.6311 9.71309 29.6311 11.674C29.6311 13.7768 31.0076 14.5214 33.3862 15.0962C35.4093 15.5624 35.7516 15.953 35.7516 16.651C35.7516 17.4249 35.0611 17.9061 33.9494 17.9061C32.7147 17.9061 31.7068 17.4892 30.5805 16.515C30.5527 16.4901 30.5146 16.4799 30.4795 16.4813C30.4415 16.4843 30.4078 16.5018 30.3844 16.5296L29.2259 17.9076C29.1776 17.9661 29.1834 18.051 29.239 18.1007C30.5497 19.271 32.1618 19.8883 33.9026 19.8883C36.363 19.8883 37.9531 18.5439 37.9531 16.4623C37.9575 14.7059 36.9058 13.7331 34.3297 13.1064L34.3253 13.1045ZM43.5207 11.0185C42.4543 11.0185 41.5795 11.4386 40.8569 12.2995V11.3305C40.8569 11.254 40.7954 11.1917 40.7194 11.1917H38.825C38.7489 11.1917 38.6875 11.254 38.6875 11.3305V22.0972C38.6875 22.1732 38.7489 22.2361 38.825 22.2361H40.7194C40.7954 22.2361 40.8569 22.1732 40.8569 22.0972V18.699C41.5795 19.5079 42.4543 19.9044 43.5207 19.9044C45.5028 19.9044 47.5099 18.3786 47.5099 15.4619C47.5128 12.5445 45.5058 11.0184 43.5222 11.0184L43.5207 11.0185ZM45.3068 15.4619C45.3068 16.9465 44.3926 17.9837 43.0819 17.9837C41.7872 17.9837 40.8101 16.8997 40.8101 15.4619C40.8101 14.0239 41.7872 12.9402 43.0819 12.9402C44.3706 12.9401 45.3068 14.0004 45.3068 15.4617V15.4619ZM52.6517 11.0185C50.0991 11.0185 48.0994 12.984 48.0994 15.4936C48.0994 17.9763 50.0859 19.9205 52.621 19.9205C55.1824 19.9205 57.188 17.9617 57.188 15.4619C57.188 12.9705 55.1956 11.0188 52.6517 11.0188V11.0185ZM52.6517 17.9983C51.2942 17.9983 50.2702 16.907 50.2702 15.4611C50.2702 14.0087 51.2591 12.9547 52.621 12.9547C53.9873 12.9547 55.0171 14.0456 55.0171 15.4929C55.0171 16.945 54.0224 17.9983 52.6517 17.9983ZM62.6385 11.1917H60.554V9.06095C60.554 8.98459 60.4925 8.92228 60.4165 8.92228H58.5221C58.446 8.92228 58.3831 8.98459 58.3831 9.06095V11.1917H57.4732C57.3972 11.1917 57.3357 11.254 57.3357 11.3305V12.9582C57.3357 13.0346 57.3972 13.0971 57.4732 13.0971H58.3831V17.3093C58.3831 19.0106 59.2301 19.8736 60.9021 19.8736C61.5809 19.8736 62.1441 19.7332 62.6751 19.4319C62.719 19.4085 62.7453 19.3617 62.7453 19.3119V17.7613C62.7453 17.7145 62.7204 17.6692 62.6795 17.6443C62.6385 17.618 62.5873 17.6165 62.5449 17.6384C62.1806 17.8213 61.8281 17.9061 61.4331 17.9061C60.8261 17.9061 60.554 17.6297 60.554 17.0123V13.0978H62.6385C62.7146 13.0978 62.776 13.0355 62.776 12.959V11.3314C62.7789 11.2549 62.7175 11.1926 62.64 11.1926L62.6385 11.1917ZM69.9 11.2001V10.9384C69.9 10.1685 70.1955 9.82514 70.8567 9.82514C71.2517 9.82514 71.5691 9.90355 71.9246 10.022C71.9685 10.0358 72.0138 10.0289 72.0489 10.0027C72.0855 9.97654 72.106 9.93456 72.106 9.89009V8.29414C72.106 8.23313 72.068 8.17916 72.008 8.16116C71.6335 8.04955 71.1537 7.93501 70.434 7.93501C68.6859 7.93501 67.7599 8.92008 67.7599 10.7827V11.1835H66.85C66.7739 11.1835 66.7111 11.2458 66.7111 11.3222V12.9582C66.7111 13.0346 66.7739 13.0971 66.85 13.0971H67.7599V19.5928C67.7599 19.6703 67.8228 19.7318 67.8989 19.7318H69.7918C69.8693 19.7318 69.9307 19.6703 69.9307 19.5928V13.0975H71.6993L74.4085 19.5928C74.1013 20.2745 73.7985 20.4105 73.386 20.4105C73.0524 20.4105 72.6999 20.311 72.3415 20.1136C72.3079 20.096 72.2669 20.0931 72.2318 20.1033C72.1952 20.1165 72.1645 20.1428 72.1499 20.1779L71.5077 21.5866C71.477 21.6539 71.5033 21.7314 71.5677 21.7666C72.2376 22.1293 72.8418 22.2844 73.5893 22.2844C74.9878 22.2844 75.7616 21.632 76.4418 19.8795L79.7274 11.3896C79.7449 11.3469 79.7391 11.2987 79.7127 11.2608C79.6879 11.2232 79.6454 11.2005 79.6001 11.2005H77.6282C77.5682 11.2005 77.5156 11.2381 77.4965 11.2935L75.4764 17.0621L73.2645 11.2897C73.2441 11.236 73.1929 11.2005 73.1358 11.2005H69.9V11.2001ZM65.69 11.1917H63.7956C63.7195 11.1917 63.6566 11.254 63.6566 11.3305V19.5928C63.6566 19.6703 63.7195 19.7318 63.7956 19.7318H65.69C65.7661 19.7318 65.829 19.6703 65.829 19.5928V11.3311C65.829 11.2546 65.7675 11.1923 65.69 11.1923V11.1917ZM64.7538 7.42945C64.0033 7.42945 63.3948 8.03682 63.3948 8.78711C63.3948 9.53784 64.0033 10.1459 64.7538 10.1459C65.5042 10.1459 66.1113 9.53784 66.1113 8.78711C66.1113 8.03697 65.5027 7.42945 64.7538 7.42945ZM81.3453 13.8484C80.5963 13.8484 80.0126 13.2464 80.0126 12.5154C80.0126 11.7845 80.6036 11.1756 81.3526 11.1756C82.1015 11.1756 82.6852 11.7774 82.6852 12.5078C82.6852 13.2388 82.0942 13.8484 81.3453 13.8484ZM81.3526 11.3082C80.6694 11.3082 80.153 11.8509 80.153 12.5154C80.153 13.1797 80.6665 13.7151 81.3453 13.7151C82.0284 13.7151 82.5448 13.1728 82.5448 12.5078C82.5448 11.8436 82.0313 11.3082 81.3526 11.3082ZM81.6481 12.6449L82.0255 13.1727H81.7066L81.3672 12.6885H81.0761V13.1727H80.8099V11.7736H81.433C81.7592 11.7736 81.9728 11.94 81.9728 12.2199C81.9743 12.4493 81.8412 12.5895 81.6495 12.6449H81.6481ZM81.4228 12.0137H81.0761V12.4562H81.4228C81.5954 12.4562 81.6993 12.3715 81.6993 12.2347C81.6993 12.0908 81.5954 12.0137 81.4228 12.0137Z" fill="#4C4C4D"/>
  </g>
  <defs>
    <clipPath id="clip0_1_60">
      <rect width="81.6667" height="28" fill="white" transform="translate(0.952393)"/>
    </clipPath>
  </defs>
</svg>