<svg xmlns="http://www.w3.org/2000/svg" width="57" height="28" viewBox="0 0 57 28" fill="none">
  <g clip-path="url(#clip0_1_56)">
    <path d="M0.929268 20.6471L6.67769 11.7024H1.61024C1.5673 11.4447 1.54889 11.1625 1.54889 10.8496C1.54889 10.549 1.5673 10.2729 1.61024 10.0214H9.81263L9.91693 10.2975L4.12556 19.2606H9.55497C9.59791 19.5428 9.61631 19.8373 9.61631 20.1318C9.61631 20.414 9.59791 20.6839 9.55497 20.9416H1.03356L0.929268 20.6471Z" fill="#4C4C4D"/>
    <path d="M17.5181 13.7454C17.5181 12.9049 17.3034 12.3283 16.8801 11.997C16.4568 11.6718 15.8372 11.5062 15.0274 11.5062C14.5304 11.5062 14.0642 11.543 13.6347 11.6227C13.1992 11.7025 12.782 11.8007 12.3648 11.9295C12.0949 11.4632 11.9599 10.8988 11.9599 10.2485C12.4446 10.0952 12.9722 9.97245 13.555 9.88657C14.1378 9.80068 14.6961 9.75773 15.2359 9.75773C16.6531 9.75773 17.7329 10.0829 18.4752 10.727C19.2114 11.3712 19.5856 12.408 19.5856 13.8252V20.6595C19.0887 20.7699 18.4875 20.8926 17.7758 21.0092C17.0641 21.1319 16.3402 21.1871 15.604 21.1871C14.9108 21.1871 14.2789 21.1257 13.7206 20.9969C13.1623 20.8681 12.6838 20.6656 12.2912 20.3773C11.8985 20.0951 11.5979 19.7331 11.3832 19.2914C11.1685 18.8497 11.0642 18.3159 11.0642 17.6963C11.0642 17.089 11.1869 16.5491 11.4384 16.089C11.6838 15.6289 12.0212 15.2424 12.4507 14.9417C12.874 14.635 13.3648 14.408 13.9231 14.2608C14.4752 14.1135 15.058 14.0338 15.6715 14.0338C16.1255 14.0338 16.4997 14.046 16.7881 14.0644C17.0764 14.0829 17.3218 14.1135 17.5243 14.1381V13.7454H17.5181ZM17.5181 15.8129C17.3034 15.7822 17.0335 15.7577 16.7083 15.727C16.3832 15.6963 16.1071 15.6841 15.8801 15.6841C14.9967 15.6841 14.328 15.8497 13.8679 16.1749C13.4077 16.5 13.1746 16.9969 13.1746 17.6656C13.1746 18.089 13.2544 18.4264 13.4077 18.6656C13.5611 18.9049 13.7574 19.089 13.9906 19.2178C14.2237 19.3466 14.4813 19.4264 14.7697 19.4509C15.0519 19.4816 15.3218 19.4939 15.5795 19.4939C15.9046 19.4939 16.2421 19.4754 16.5918 19.4386C16.9415 19.4018 17.2482 19.3528 17.5181 19.2791V15.8129Z" fill="#4C4C4D"/>
    <path d="M21.8862 10.0219C22.0273 9.9912 22.1745 9.9728 22.3217 9.96053C22.469 9.94826 22.6223 9.94212 22.7819 9.94212C22.923 9.94212 23.0702 9.94826 23.2297 9.96053C23.3831 9.9728 23.5364 9.99734 23.6775 10.0219C23.6898 10.0526 23.7082 10.1384 23.7328 10.2857C23.7512 10.4329 23.7757 10.5924 23.7941 10.7642C23.8125 10.936 23.8371 11.0955 23.8555 11.255C23.8739 11.4145 23.8861 11.5127 23.8861 11.5556C24.0272 11.3286 24.199 11.1078 24.3953 10.893C24.5917 10.6783 24.8309 10.4881 25.107 10.3164C25.3831 10.1446 25.6959 10.0096 26.0456 9.91145C26.3953 9.81329 26.7818 9.76421 27.2051 9.76421C27.8432 9.76421 28.4382 9.86851 28.9843 10.0832C29.5303 10.2979 29.9965 10.6231 30.3892 11.0709C30.7818 11.5188 31.0824 12.0893 31.3033 12.7765C31.5241 13.4636 31.6345 14.2795 31.6345 15.2182C31.6345 17.0954 31.1253 18.5617 30.1131 19.6169C29.0947 20.6721 27.6591 21.2058 25.8002 21.2058C25.4873 21.2058 25.1683 21.1874 24.8432 21.1445C24.518 21.1016 24.2297 21.0463 23.9904 20.9727V25.9788C23.8187 26.0095 23.6407 26.0279 23.4444 26.0402C23.2542 26.0524 23.0763 26.0586 22.923 26.0586C22.7696 26.0586 22.5917 26.0524 22.4015 26.0402C22.2113 26.0279 22.0334 26.0034 21.88 25.9788V10.0219H21.8862ZM23.9966 19.1568C24.2665 19.2549 24.5426 19.3286 24.8248 19.3715C25.107 19.4144 25.4751 19.4329 25.9352 19.4329C26.4444 19.4329 26.9168 19.3531 27.3401 19.1875C27.7634 19.0218 28.1315 18.7703 28.4382 18.4329C28.745 18.0893 28.9843 17.6599 29.1622 17.1445C29.3401 16.6292 29.426 16.0096 29.426 15.304C29.426 14.1691 29.2174 13.2673 28.8002 12.5985C28.383 11.9298 27.6959 11.5986 26.745 11.5986C26.3892 11.5986 26.0518 11.6599 25.7205 11.7887C25.3953 11.9176 25.1008 12.1078 24.8493 12.3654C24.5917 12.6231 24.3892 12.9421 24.2297 13.3347C24.0702 13.7274 23.9966 14.1875 23.9966 14.7274V19.1568Z" fill="#4C4C4D"/>
    <path d="M34.2603 11.6778H32.8738C32.8431 11.5613 32.8247 11.4324 32.8124 11.2852C32.8002 11.138 32.794 10.9907 32.794 10.8496C32.794 10.7085 32.8002 10.5613 32.8124 10.414C32.8247 10.2668 32.8492 10.1318 32.8738 10.0214H36.3277V20.9477C36.1744 20.9784 35.9965 20.9968 35.8063 21.0091C35.6161 21.0213 35.4382 21.0275 35.2848 21.0275C35.1437 21.0275 34.9781 21.0213 34.7817 21.0091C34.5916 20.9968 34.4136 20.9723 34.2603 20.9477V11.6778Z" fill="#4C4C4D"/>
    <path d="M40.8614 16.0032C40.8921 17.1934 41.1989 18.0707 41.7878 18.6229C42.3768 19.175 43.2479 19.4511 44.3952 19.4511C45.4013 19.4511 46.3645 19.2732 47.2724 18.9173C47.389 19.132 47.481 19.3897 47.5485 19.6965C47.6221 20.0032 47.6589 20.3038 47.6773 20.6044C47.2111 20.8007 46.6958 20.9541 46.1313 21.0523C45.5731 21.1504 44.9473 21.1995 44.2663 21.1995C43.2725 21.1995 42.4197 21.0584 41.7081 20.7823C40.9964 20.5063 40.4136 20.1136 39.9535 19.6106C39.4934 19.1075 39.1559 18.5124 38.9412 17.8192C38.7265 17.1321 38.6222 16.3775 38.6222 15.5493C38.6222 14.7394 38.7265 13.9848 38.9289 13.2793C39.1314 12.5738 39.4504 11.9665 39.8737 11.445C40.297 10.9297 40.8369 10.5125 41.4811 10.2119C42.1252 9.90512 42.8921 9.75175 43.7694 9.75175C44.524 9.75175 45.1804 9.88058 45.751 10.1383C46.3215 10.3959 46.7939 10.7456 47.1804 11.1935C47.5608 11.6413 47.8552 12.175 48.0516 12.7885C48.2479 13.4082 48.3522 14.0769 48.3522 14.8008C48.3522 14.9971 48.346 15.2118 48.3276 15.4266C48.3154 15.6474 48.297 15.8376 48.2847 15.991H40.8614V16.0032ZM46.2724 14.4266C46.2724 14.0278 46.2172 13.6474 46.1129 13.2855C46.0086 12.9235 45.8491 12.6106 45.6467 12.3407C45.4381 12.0708 45.1804 11.856 44.8614 11.6904C44.5424 11.5247 44.162 11.445 43.7203 11.445C42.8553 11.445 42.1927 11.7088 41.7265 12.2303C41.2663 12.7579 40.9841 13.4879 40.886 14.4266H46.2724Z" fill="#4C4C4D"/>
    <path d="M50.6835 10.0214C50.8369 9.99074 50.9902 9.97234 51.1313 9.96007C51.2724 9.9478 51.4197 9.94166 51.5792 9.94166C51.7326 9.94166 51.8921 9.9478 52.0454 9.96007C52.1988 9.97234 52.3461 9.99688 52.4687 10.0214C52.5117 10.2361 52.5546 10.5122 52.5976 10.8619C52.6405 11.2116 52.6589 11.5061 52.6589 11.7453C52.9595 11.2607 53.3522 10.8435 53.843 10.4877C54.3338 10.1318 54.9595 9.95393 55.7264 9.95393C55.843 9.95393 55.9595 9.96007 56.0761 9.9662C56.1988 9.97234 56.2969 9.98461 56.3828 9.99688C56.4135 10.1257 56.4319 10.2607 56.4442 10.4018C56.4564 10.5429 56.4626 10.6901 56.4626 10.8496C56.4626 11.0214 56.4503 11.1993 56.4319 11.3834C56.4135 11.5674 56.3828 11.7453 56.3583 11.9171C56.2417 11.8864 56.1252 11.8742 56.0086 11.8742C55.8859 11.8742 55.7939 11.8742 55.7203 11.8742C55.3399 11.8742 54.9718 11.9294 54.6221 12.0337C54.2724 12.138 53.9595 12.3281 53.6835 12.5981C53.4074 12.868 53.1865 13.2361 53.0209 13.7085C52.8552 14.1748 52.7755 14.7821 52.7755 15.5183V20.9477C52.6221 20.9784 52.4442 20.9968 52.254 21.0091C52.0638 21.0213 51.8859 21.0275 51.7326 21.0275C51.5792 21.0275 51.4013 21.0213 51.2111 21.0091C51.0209 20.9968 50.8369 20.9723 50.6651 20.9477V10.0214H50.6835Z" fill="#4C4C4D"/>
    <path d="M38.3338 3.59225H36.2724L37.7326 2.13214C37.616 1.97263 37.4872 1.81926 37.3522 1.67816C37.2111 1.53706 37.0638 1.40822 36.8982 1.29779L35.4381 2.75791V0.696571C35.2479 0.665896 35.0516 0.647491 34.8491 0.647491H34.843C34.6406 0.647491 34.4442 0.665896 34.2541 0.696571V2.75791L32.7939 1.29779C32.6344 1.41436 32.4811 1.54319 32.34 1.67816C32.1989 1.81926 32.0762 1.9665 31.9596 2.13214L33.4258 3.59225H31.3645C31.3645 3.59225 31.3154 3.97875 31.3154 4.18121C31.3154 4.38366 31.3338 4.57998 31.3645 4.77016H33.4258L31.9657 6.23027C32.1927 6.54929 32.4749 6.83149 32.8001 7.06462L34.2602 5.60451V7.66584C34.4504 7.69652 34.6467 7.71492 34.8491 7.71492H34.8553C35.0577 7.71492 35.254 7.69652 35.4442 7.66584V5.60451L36.9043 7.06462C37.0638 6.94806 37.2172 6.81922 37.3583 6.68426C37.4994 6.54315 37.6283 6.39591 37.7387 6.23027L36.2786 4.77016H38.3399C38.3706 4.57998 38.389 4.38366 38.389 4.18121V4.17507C38.3829 3.97875 38.3706 3.78244 38.3338 3.59225ZM35.7326 4.18734C35.7326 4.45114 35.6835 4.70268 35.5976 4.9358C35.3645 5.02169 35.1129 5.07077 34.8491 5.07077C34.5853 5.07077 34.3338 5.02169 34.1007 4.9358C34.0148 4.70268 33.9657 4.45114 33.9657 4.18734V4.18121C33.9657 3.91741 34.0148 3.66587 34.1007 3.43275C34.3338 3.34686 34.5853 3.29778 34.8491 3.29778C35.1129 3.29778 35.3645 3.34686 35.5976 3.43275C35.6835 3.66587 35.7326 3.91741 35.7326 4.18734Z" fill="#4C4C4D"/>
  </g>
  <defs>
    <clipPath id="clip0_1_56">
      <rect width="56" height="28" fill="white" transform="translate(0.928574)"/>
    </clipPath>
  </defs>
</svg>