<svg xmlns="http://www.w3.org/2000/svg" width="58" height="28" viewBox="0 0 58 28" fill="none">
  <g clip-path="url(#clip0_1_64)">
    <path fill-rule="evenodd" clip-rule="evenodd" d="M46.5553 12.0165C46.7736 12.3931 46.845 12.8216 46.8686 13.3033L46.8996 13.9454V18.4352L46.9313 19.0779C46.9946 20.1276 47.7687 20.9038 48.8265 20.9698L49.4659 21.0015V13.9454L49.4976 13.3033C49.5238 12.827 49.5946 12.3904 49.8162 12.0111C50.0421 11.6221 50.3663 11.2993 50.7564 11.0752C51.1465 10.851 51.5886 10.7335 52.0385 10.7343C52.4884 10.7351 52.9301 10.8543 53.3194 11.0798C53.7086 11.3054 54.0317 11.6293 54.2561 12.0192C54.4744 12.3958 54.5425 12.8324 54.5688 13.3033L54.6004 13.9434V18.4352L54.6321 19.0779C54.6981 20.133 55.4662 20.9092 56.5273 20.9698L57.1667 21.0015V13.3033C57.1667 11.9421 56.6261 10.6366 55.6637 9.67386C54.7014 8.71113 53.3961 8.17001 52.0348 8.16947C51.3063 8.1687 50.5859 8.32342 49.9219 8.6233C49.2579 8.92317 48.6656 9.36129 48.1844 9.90838C47.7031 9.3615 47.1107 8.92349 46.4468 8.62353C45.7828 8.32357 45.0626 8.16855 44.334 8.1688C43.2682 8.1688 42.2791 8.49219 41.4599 9.05072C40.96 8.49286 39.8416 8.1688 39.1995 8.1688V21.0015L39.8416 20.9698C40.9155 20.8991 41.6916 20.1438 41.7334 19.0779L41.7678 18.4352V13.9454L41.7994 13.3033C41.8264 12.8189 41.8938 12.3931 42.1127 12.0138C42.3388 11.625 42.6629 11.3023 43.0527 11.0779C43.4424 10.8535 43.8843 10.7353 44.334 10.7351C44.7841 10.7352 45.2263 10.8536 45.6162 11.0785C46.0061 11.3034 46.3299 11.6269 46.5553 12.0165ZM2.62571 20.9705L3.26778 21.0015H12.8921L12.8604 20.3614C12.7735 19.3063 12.0264 18.5356 10.9679 18.4669L10.3258 18.4352H4.55192L12.25 10.7344L12.2184 10.095C12.1685 9.02916 11.3897 8.25908 10.3258 8.20046L9.68377 8.17149L0.0594482 8.1688L0.0911139 8.81087C0.175331 9.85583 0.933284 10.6428 1.98297 10.7034L2.62571 10.7351H8.39963L0.701519 18.4359L0.733185 19.0779C0.796516 20.1357 1.55986 20.9017 2.62571 20.9698V20.9705ZM36.6804 10.0472C37.2763 10.643 37.749 11.3503 38.0716 12.1288C38.3941 12.9074 38.5601 13.7418 38.5601 14.5845C38.5601 15.4271 38.3941 16.2616 38.0716 17.0401C37.749 17.8186 37.2763 18.5259 36.6804 19.1217C35.4764 20.3247 33.8441 21.0005 32.1421 21.0005C30.4401 21.0005 28.8078 20.3247 27.6038 19.1217C25.0982 16.6161 25.0982 12.5528 27.6038 10.0472C28.1992 9.45158 28.9061 8.97908 29.684 8.65667C30.462 8.33426 31.2959 8.16825 32.1381 8.16812C32.9816 8.16754 33.8169 8.33325 34.5963 8.6558C35.3758 8.97834 36.0839 9.45137 36.6804 10.0478V10.0472ZM34.8647 11.8642C35.5864 12.5865 35.9918 13.5658 35.9918 14.5868C35.9918 15.6079 35.5864 16.5871 34.8647 17.3094C34.1424 18.0311 33.1631 18.4365 32.1421 18.4365C31.1211 18.4365 30.1418 18.0311 29.4195 17.3094C28.6978 16.5871 28.2924 15.6079 28.2924 14.5868C28.2924 13.5658 28.6978 12.5865 29.4195 11.8642C30.1418 11.1425 31.1211 10.7371 32.1421 10.7371C33.1631 10.7371 34.1424 11.1425 34.8647 11.8642ZM18.6714 8.16812C19.5136 8.16834 20.3475 8.33446 21.1255 8.65698C21.9035 8.97951 22.6103 9.45213 23.2057 10.0478C25.712 12.5528 25.712 16.6168 23.2057 19.1217C22.0017 20.3247 20.3693 21.0005 18.6674 21.0005C16.9654 21.0005 15.3331 20.3247 14.1291 19.1217C11.6235 16.6161 11.6235 12.5528 14.1291 10.0472C14.7245 9.45158 15.4313 8.97908 16.2093 8.65667C16.9873 8.33426 17.8212 8.16825 18.6633 8.16812H18.6714ZM21.3899 11.8629C22.1119 12.5852 22.5174 13.5646 22.5174 14.5858C22.5174 15.607 22.1119 16.5864 21.3899 17.3087C20.6677 18.0304 19.6884 18.4358 18.6674 18.4358C17.6463 18.4358 16.6671 18.0304 15.9448 17.3087C15.2231 16.5864 14.8177 15.6072 14.8177 14.5861C14.8177 13.5651 15.2231 12.5858 15.9448 11.8636C16.6671 11.1419 17.6463 10.7364 18.6674 10.7364C19.6884 10.7364 20.6677 11.1419 21.3899 11.8636V11.8629Z" fill="#4C4C4D"/>
  </g>
  <defs>
    <clipPath id="clip0_1_64">
      <rect width="57.1666" height="28" fill="white" transform="translate(0.0595398)"/>
    </clipPath>
  </defs>
</svg>